{
  "accessors": [
    {
      "bufferView": 2,
      "componentType": 5126,
      "count": 442,
      "max": [
        15.563397407531738,
        164.1947021484375,
        26.16180419921875
      ],
      "min": [
        -15.317584037780762,
        151.56295776367188,
        19.715839385986328
      ],
      "type": "VEC3"
    },
    {
      "bufferView": 2,
      "byteOffset": 5304,
      "componentType": 5126,
      "count": 442,
      "max": [
        0.9969176054000854,
        0.998320460319519,
        0.9997878670692444
      ],
      "min": [
        -0.9969174861907959,
        -0.9950897693634033,
        0.057934027165174484
      ],
      "type": "VEC3"
    },
    {
      "bufferView": 3,
      "componentType": 5126,
      "count": 442,
      "max": [
        0.3186109960079193,
        0.9612159729003906,
        0.9953814148902893,
        1.0
      ],
      "min": [
        -0.9517800211906433,
        -0.33459290862083435,
        -0.9921530485153198,
        1.0
      ],
      "type": "VEC4"
    },
    {
      "bufferView": 1,
      "componentType": 5126,
      "count": 442,
      "max": [
        0.9962159991264343,
        0.9905470013618469
      ],
      "min": [
        0.0032689999788999557,
        0.03246700018644333
      ],
      "type": "VEC2"
    },
    {
      "bufferView": 0,
      "componentType": 5125,
      "count": 2280,
      "type": "SCALAR"
    },
    {
      "bufferView": 2,
      "byteOffset": 10608,
      "componentType": 5126,
      "count": 6257,
      "max": [
        1.510553002357483,
        0.9745479822158813,
        0.7159910202026367
      ],
      "min": [
        -1.510553002357483,
        -3.8089349269866943,
        -0.7736250162124634
      ],
      "type": "VEC3"
    },
    {
      "bufferView": 2,
      "byteOffset": 85692,
      "componentType": 5126,
      "count": 6257,
      "max": [
        0.9999805688858032,
        0.9994812607765198,
        0.9999982118606567
      ],
      "min": [
        -0.9999805688858032,
        -0.9999162554740906,
        -0.9999955296516418
      ],
      "type": "VEC3"
    },
    {
      "bufferView": 3,
      "byteOffset": 7072,
      "componentType": 5126,
      "count": 6257,
      "max": [
        0.9999129772186279,
        0.9999966025352478,
        0.9997362494468689,
        1.0
      ],
      "min": [
        -0.9999667406082153,
        -0.9999898672103882,
        -0.9997013211250305,
        1.0
      ],
      "type": "VEC4"
    },
    {
      "bufferView": 1,
      "byteOffset": 3536,
      "componentType": 5126,
      "count": 6257,
      "max": [
        0.9980080127716064,
        0.9173269867897034
      ],
      "min": [
        0.0019920000340789557,
        0.0018309999722987413
      ],
      "type": "VEC2"
    },
    {
      "bufferView": 0,
      "byteOffset": 9120,
      "componentType": 5125,
      "count": 32712,
      "type": "SCALAR"
    }
  ],
  "asset": {
    "extras": {
      "author": "Dacoher (https://sketchfab.com/Dacoher)",
      "license": "CC-BY-4.0 (http://creativecommons.org/licenses/by/4.0/)",
      "source": "https://sketchfab.com/3d-models/nino-49bd7b3283914125917614be35963fdb",
      "title": "Niño"
    },
    "generator": "Sketchfab-12.67.0",
    "version": "2.0"
  },
  "bufferViews": [
    {
      "buffer": 0,
      "byteLength": 139968,
      "name": "floatBufferViews",
      "target": 34963
    },
    {
      "buffer": 0,
      "byteLength": 53592,
      "byteOffset": 139968,
      "byteStride": 8,
      "name": "floatBufferViews",
      "target": 34962
    },
    {
      "buffer": 0,
      "byteLength": 160776,
      "byteOffset": 193560,
      "byteStride": 12,
      "name": "floatBufferViews",
      "target": 34962
    },
    {
      "buffer": 0,
      "byteLength": 107184,
      "byteOffset": 354336,
      "byteStride": 16,
      "name": "floatBufferViews",
      "target": 34962
    }
  ],
  "buffers": [
    {
      "byteLength": 461520,
      "uri": "scene.bin"
    }
  ],
  "images": [
    {
      "uri": "textures/Ninio_baseColor.jpeg"
    },
    {
      "uri": "textures/Ninio_metallicRoughness.png"
    },
    {
      "uri": "textures/Ninio_normal.png"
    },
    {
      "uri": "textures/Ojos_baseColor.jpeg"
    },
    {
      "uri": "textures/Ojos_metallicRoughness.png"
    },
    {
      "uri": "textures/Ojos_normal.png"
    }
  ],
  "materials": [
    {
      "doubleSided": true,
      "name": "Ninio",
      "normalTexture": {
        "index": 2
      },
      "occlusionTexture": {
        "index": 1
      },
      "pbrMetallicRoughness": {
        "baseColorTexture": {
          "index": 0
        },
        "metallicRoughnessTexture": {
          "index": 1
        }
      }
    },
    {
      "doubleSided": true,
      "name": "Ojos",
      "normalTexture": {
        "index": 5
      },
      "pbrMetallicRoughness": {
        "baseColorTexture": {
          "index": 3
        },
        "metallicRoughnessTexture": {
          "index": 4
        }
      }
    }
  ],
  "meshes": [
    {
      "name": "defaultMaterial",
      "primitives": [
        {
          "attributes": {
            "NORMAL": 1,
            "POSITION": 0,
            "TANGENT": 2,
            "TEXCOORD_0": 3
          },
          "indices": 4,
          "material": 1,
          "mode": 4
        }
      ]
    },
    {
      "name": "defaultMaterial",
      "primitives": [
        {
          "attributes": {
            "NORMAL": 6,
            "POSITION": 5,
            "TANGENT": 7,
            "TEXCOORD_0": 8
          },
          "indices": 9,
          "material": 0,
          "mode": 4
        }
      ]
    }
  ],
  "nodes": [
    {
      "children": [
        1
      ],
      "matrix": [
        1.0,
        0.0,
        0.0,
        0.0,
        0.0,
        2.220446049250313e-16,
        -1.0,
        0.0,
        0.0,
        1.0,
        2.220446049250313e-16,
        0.0,
        0.0,
        0.0,
        0.0,
        1.0
      ],
      "name": "Sketchfab_model"
    },
    {
      "children": [
        2,
        4
      ],
      "matrix": [
        1.0,
        0.0,
        0.0,
        0.0,
        0.0,
        -4.371139006309477e-08,
        0.999999999999999,
        0.0,
        0.0,
        -0.999999999999999,
        -4.371139006309477e-08,
        0.0,
        0.0,
        0.0,
        0.0,
        1.0
      ],
      "name": "Collada visual scene group"
    },
    {
      "children": [
        3
      ],
      "name": "polySurface4"
    },
    {
      "mesh": 0,
      "name": "defaultMaterial"
    },
    {
      "children": [
        5
      ],
      "matrix": [
        42.36618,
        0.0,
        0.0,
        0.0,
        0.0,
        42.36618,
        2e-06,
        0.0,
        0.0,
        -2e-06,
        42.36618,
        0.0,
        0.0,
        156.496155,
        0.0,
        1.0
      ],
      "name": "polySurface1"
    },
    {
      "mesh": 1,
      "name": "defaultMaterial"
    }
  ],
  "samplers": [
    {
      "magFilter": 9729,
      "minFilter": 9987,
      "wrapS": 10497,
      "wrapT": 10497
    }
  ],
  "scene": 0,
  "scenes": [
    {
      "name": "Sketchfab_Scene",
      "nodes": [
        0
      ]
    }
  ],
  "textures": [
    {
      "sampler": 0,
      "source": 0
    },
    {
      "sampler": 0,
      "source": 1
    },
    {
      "sampler": 0,
      "source": 2
    },
    {
      "sampler": 0,
      "source": 3
    },
    {
      "sampler": 0,
      "source": 4
    },
    {
      "sampler": 0,
      "source": 5
    }
  ]
}
